<?xml version="1.0" encoding="utf-8"?><svg viewBox="0 0 209 68" xmlns="http://www.w3.org/2000/svg" xmlns:xlink="http://www.w3.org/1999/xlink"><style>:root>svg{display:none}:root>svg:target{display:block}</style><svg fill="none" viewBox="0 0 12 7" id="arrow-dwn" xmlns="http://www.w3.org/2000/svg"><path fill-rule="evenodd" clip-rule="evenodd" d="M11.139.528c.26.26.26.683 0 .943L6.472 6.138a.667.667 0 01-.943 0L.863 1.47a.667.667 0 01.942-.943l4.196 4.196L10.196.528c.26-.26.682-.26.943 0z" fill="#424551"/></svg><svg fill="none" viewBox="0 0 24 24" id="arrow-right" xmlns="http://www.w3.org/2000/svg"><path fill-rule="evenodd" clip-rule="evenodd" d="M14.793 6.793a1 1 0 011.414 0l4.5 4.5a1 1 0 010 1.414l-4.5 4.5a1 1 0 01-1.414-1.414L17.586 13H4a1 1 0 110-2h13.586l-2.793-2.793a1 1 0 010-1.414z" fill="#424551"/></svg><svg fill="none" viewBox="0 0 20 14" id="big-check" xmlns="http://www.w3.org/2000/svg"><path fill-rule="evenodd" clip-rule="evenodd" d="M19.707.293a1 1 0 010 1.414l-12 12a1 1 0 01-1.414 0l-6-6a1 1 0 011.414-1.414L7 11.586 18.293.293a1 1 0 011.414 0z" fill="#FF5A30"/></svg><svg fill="none" viewBox="0 0 28 20" id="braces" xmlns="http://www.w3.org/2000/svg"><path d="M18 8.925a1 1 0 01.354-.763L28 0v19a1 1 0 01-1 1h-8a1 1 0 01-1-1V8.925zM0 8.925a1 1 0 01.354-.763L10 0v19a1 1 0 01-1 1H1a1 1 0 01-1-1V8.925z" fill="#FF5A30"/></svg><svg fill="none" viewBox="0 0 48 48" id="brain" xmlns="http://www.w3.org/2000/svg"><g clip-path="url(#aeclip0_2450_1249)"><path d="M48 24a9.728 9.728 0 00-4.779-8.39 6.39 6.39 0 00-.397-4.205 6.38 6.38 0 00-3.19-3.181 8.775 8.775 0 00-2.426-5.48A8.779 8.779 0 0030.797 0 8.88 8.88 0 0024 3.177 8.88 8.88 0 0017.203 0a8.779 8.779 0 00-6.411 2.745 8.774 8.774 0 00-2.427 5.479 6.38 6.38 0 00-3.19 3.181 6.39 6.39 0 00-.396 4.205A9.728 9.728 0 000 24a9.728 9.728 0 004.779 8.39 6.39 6.39 0 00.397 4.205 6.38 6.38 0 003.19 3.181 8.775 8.775 0 002.426 5.48A8.779 8.779 0 0017.203 48 8.88 8.88 0 0024 44.823 8.88 8.88 0 0030.797 48a8.779 8.779 0 006.411-2.745 8.775 8.775 0 002.427-5.479 6.38 6.38 0 003.19-3.181 6.39 6.39 0 00.396-4.205A9.728 9.728 0 0048 24zm-6.801 6.281H34.5V26.24h4.969c.776 0 1.406-.63 1.406-1.406v-4.114a1.406 1.406 0 00-2.813 0v2.707H34.5V20.99a2.816 2.816 0 00-2.813-2.813h-2.812a1.406 1.406 0 000 2.813h2.813v9.292h-6.282V27.75a1.406 1.406 0 00-2.813 0v2.531a2.816 2.816 0 002.813 2.813h15.09a3.59 3.59 0 01-.23 2.332 3.577 3.577 0 01-2.374 1.991 1.406 1.406 0 00-1.056 1.43 6.002 6.002 0 01-1.664 4.467 5.992 5.992 0 01-4.375 1.873 6.062 6.062 0 01-5.39-3.305v-2.976h2.53a1.406 1.406 0 000-2.812h-2.53a2.816 2.816 0 00-2.813 2.812v2.976a6.061 6.061 0 01-5.39 3.306 5.991 5.991 0 01-4.376-1.874 5.994 5.994 0 01-1.574-3.087h3.371a2.816 2.816 0 002.813-2.813v-1.738h1.218a1.406 1.406 0 100-2.813h-1.218v-1.738a2.816 2.816 0 00-2.813-2.813h-2.438a1.406 1.406 0 000 2.813h2.438v6.29s-4.513.003-4.517.002a3.577 3.577 0 01-2.374-1.99 3.58 3.58 0 01.049-3.102 1.407 1.407 0 00-.714-1.925A6.925 6.925 0 012.813 24a6.925 6.925 0 014.256-6.4c.041-.018.081-.038.12-.059h2.186v4.219a1.406 1.406 0 102.812 0v-4.219h5.25v6.844a1.406 1.406 0 102.813 0v-2.531h1.37a1.406 1.406 0 100-2.813h-1.37v-1.5a2.816 2.816 0 00-2.813-2.812h-.843v-3.76a1.406 1.406 0 10-2.813 0v3.76H7.465a3.595 3.595 0 01.27-2.155 3.578 3.578 0 012.373-1.991 1.406 1.406 0 001.056-1.43 6.002 6.002 0 011.664-4.467 5.992 5.992 0 014.375-1.873 6.06 6.06 0 015.485 3.498v4.752a2.816 2.816 0 002.812 2.812H33a1.406 1.406 0 000-2.813h-.281V9.095a1.406 1.406 0 00-2.813 0v1.969H25.5s-.003-5.063-.007-5.11a6.063 6.063 0 015.304-3.14c1.67 0 3.224.665 4.375 1.873a6.002 6.002 0 011.665 4.468 1.406 1.406 0 001.055 1.429c1.054.27 1.92.996 2.374 1.99a3.581 3.581 0 01-.049 3.102 1.406 1.406 0 00.714 1.924A6.925 6.925 0 0145.188 24a6.924 6.924 0 01-3.99 6.281z" fill="#FF5A30"/></g><defs><clipPath id="aeclip0_2450_1249"><path fill="#fff" d="M0 0h48v48H0z"/></clipPath></defs></svg><svg viewBox="0 0 53 52" id="brick" xmlns="http://www.w3.org/2000/svg"><g clip-path="url(#afclip0_2393_2349)"><path d="M50.977 27.523c.84 0 1.523-.682 1.523-1.523V14.625c0-.841-.682-1.523-1.523-1.523H28.023V3.25c0-.841-.682-1.523-1.523-1.523H10.25c-.841 0-1.523.682-1.523 1.523v9.852H2.023c-.84 0-1.523.682-1.523 1.523V26c0 .841.682 1.523 1.523 1.523h6.704v8.329H2.023c-.84 0-1.523.682-1.523 1.523V48.75c0 .841.682 1.523 1.523 1.523h48.954c.84 0 1.523-.682 1.523-1.523V37.375c0-.841-.682-1.523-1.523-1.523h-6.704v-8.329h6.704zm-1.524-3.046H36.148v-8.329h13.305v8.329zm-16.351 0H19.898v-8.329h13.204v8.329zM11.773 4.773h13.204v8.329H11.773V4.773zM3.547 24.477v-8.329h13.305v8.329H3.547zm8.226 3.046h13.204v8.329H11.773v-8.329zM3.547 38.898h13.305v8.329H3.547v-8.329zm16.351 0h13.204v8.329H19.898v-8.329zm29.555 0v8.329H36.148v-8.329h13.305zm-8.226-3.046H28.023v-8.329h13.204v8.329z"/></g><defs><clipPath id="afclip0_2393_2349"><path fill="#fff" transform="translate(.5)" d="M0 0h52v52H0z"/></clipPath></defs></svg><svg fill="none" viewBox="0 0 48 48" id="budget" xmlns="http://www.w3.org/2000/svg"><g clip-path="url(#agclip0_2450_1294)" fill="#FF5A30"><path d="M29.558 11.341A8.23 8.23 0 0032.25 5.25V1.5A1.5 1.5 0 0030.276.077l-2.748.916c-2.275.758-4.781.758-7.056 0L17.724.077A1.5 1.5 0 0015.75 1.5v3.75a8.23 8.23 0 002.692 6.091C10.808 13.715 5.25 20.846 5.25 29.25v12.563A6.194 6.194 0 0011.438 48h25.124a6.194 6.194 0 006.188-6.188V29.25c0-8.404-5.558-15.535-13.192-17.909zM18.75 5.25V3.581l.773.258c2.887.962 6.067.962 8.954 0l.773-.258V5.25A5.256 5.256 0 0124 10.5a5.256 5.256 0 01-5.25-5.25zm21 36.563A3.191 3.191 0 0136.562 45H11.439a3.191 3.191 0 01-3.188-3.188V29.25c0-8.685 7.065-15.75 15.75-15.75 8.685 0 15.75 7.065 15.75 15.75v12.563z"/><path d="M24 27.75c-1.654 0-3-1.346-3-3s1.346-3 3-3 3 1.346 3 3a1.5 1.5 0 003 0 6.01 6.01 0 00-4.5-5.81V18a1.5 1.5 0 00-3 0v.94a6.01 6.01 0 00-4.5 5.81c0 3.308 2.692 6 6 6 1.654 0 3 1.346 3 3s-1.346 3-3 3-3-1.346-3-3a1.5 1.5 0 00-3 0 6.01 6.01 0 004.5 5.81v.94a1.5 1.5 0 003 0v-.94a6.01 6.01 0 004.5-5.81c0-3.308-2.692-6-6-6z"/></g><defs><clipPath id="agclip0_2450_1294"><path fill="#fff" d="M0 0h48v48H0z"/></clipPath></defs></svg><svg fill="none" viewBox="0 0 48 48" id="camera" xmlns="http://www.w3.org/2000/svg"><path d="M33.462 33.42v-9.731l5.61-2.323c4.509-1.868 6.658-7.056 4.79-11.566-1.868-4.509-7.056-6.658-11.565-4.79L1.674 17.695l2.535 3.785L0 23.223l3.356 8.101 5.828-2.414 2.535 3.785 13.301-5.51v6.235a5.975 5.975 0 00-1.773 4.25 6 6 0 005.994 5.994c1.66 0 3.165-.678 4.251-1.773H48V33.45H33.492l-.03-.03zM4.878 27.65l-1.203-2.905 2.13-.882 1.784 2.664-2.711 1.123zm7.895 1.565L5.92 18.98 33.373 7.608a6.046 6.046 0 017.89 3.269 6.046 6.046 0 01-3.268 7.89L12.773 29.215zm15.06-3.194l2.817-1.167v6.991a5.984 5.984 0 00-2.817 0v-5.824zm1.408 14.83a3.185 3.185 0 01-3.181-3.18 3.185 3.185 0 013.181-3.182 3.185 3.185 0 013.182 3.181 3.185 3.185 0 01-3.182 3.182zm5.825-4.589h10.122v2.817H35.066a5.986 5.986 0 000-2.817z" fill="#FF5A30"/></svg><svg viewBox="0 0 40 40" id="chat" xmlns="http://www.w3.org/2000/svg"><path fill-rule="evenodd" clip-rule="evenodd" d="M36.539 17.611a12.92 12.92 0 01-1.634 4.645c.063.356.095.716.095 1.077 0 1.255-.364 2.456-1.037 3.547-.337.544-.423 1.182-.456 1.604-.038.483-.026 1.012.009 1.52.039.57.109 1.168.189 1.732-.65-.19-1.356-.38-2.029-.532a14.5 14.5 0 00-1.65-.288c-.453-.046-1.107-.082-1.692.107a13.56 13.56 0 01-4.168.643c-1.763 0-3.382-.313-4.802-.856-.341.015-.685.023-1.031.023a22.06 22.06 0 01-5.748-.752C15.213 33.121 19.546 35 24.166 35c1.805 0 3.537-.277 5.134-.786h.015c.041-.002.155-.004.368.018.334.035.764.112 1.26.224.987.222 2.096.551 2.961.825 1.834.583 3.61-1.018 3.283-2.878-.141-.801-.288-1.778-.345-2.625a7.402 7.402 0 01-.012-1.032c.008-.106.019-.173.026-.208.937-1.553 1.477-3.322 1.477-5.205 0-2.122-.66-4.06-1.794-5.722z" fill="#FF5A30"/><path fill-rule="evenodd" clip-rule="evenodd" d="M9.328 9.497c-2.247 1.718-3.495 3.973-3.495 6.336 0 1.178.306 2.313.882 3.369.22.402.281.816.304 1.097.024.306.012.62-.015.915-.053.589-.18 1.256-.333 1.913a38.712 38.712 0 01-.639 2.359c.88-.32 1.843-.648 2.755-.914a17.944 17.944 0 012.145-.507c.57-.09 1.4-.179 2.112.068 1.6.554 3.391.867 5.289.867 3.578 0 6.757-1.111 9.005-2.83 2.246-1.719 3.495-3.974 3.495-6.337 0-2.363-1.249-4.618-3.495-6.336-2.248-1.72-5.427-2.83-9.005-2.83-3.579 0-6.757 1.11-9.005 2.83zM7.303 6.849c2.88-2.202 6.784-3.516 11.03-3.516 4.245 0 8.15 1.314 11.03 3.516 2.88 2.203 4.803 5.364 4.803 8.984s-1.923 6.781-4.804 8.984c-2.879 2.202-6.784 3.516-11.03 3.516-2.238 0-4.376-.365-6.317-1.029-.002.006-.16-.01-.563.054-.464.073-1.057.217-1.731.414-1.343.392-2.85.946-3.998 1.393-1.99.774-4.016-1.137-3.346-3.172.355-1.079.774-2.442 1.047-3.619.138-.593.227-1.091.26-1.46a2.9 2.9 0 00.014-.285A10.293 10.293 0 012.5 15.833c0-3.62 1.923-6.781 4.804-8.984zm-3.61 13.689l.002.014a.092.092 0 01-.002-.014z" fill="#FF5A30"/></svg><svg fill="none" viewBox="0 0 16 17" id="chat-gray" xmlns="http://www.w3.org/2000/svg"><path fill-rule="evenodd" clip-rule="evenodd" d="M14.615 7.546a5.166 5.166 0 01-.653 1.858c.025.142.038.286.038.43 0 .502-.146.982-.415 1.419-.135.218-.17.473-.183.642-.015.193-.01.404.004.607.016.228.044.468.076.693-.26-.075-.542-.152-.812-.212a5.819 5.819 0 00-.66-.115c-.181-.019-.443-.034-.676.042a5.425 5.425 0 01-1.668.258 5.365 5.365 0 01-1.92-.343 8.824 8.824 0 01-2.712-.291C6.085 13.748 7.818 14.5 9.666 14.5a6.76 6.76 0 002.054-.315h.006c.016 0 .062 0 .147.008.134.014.306.044.504.09.395.088.839.22 1.184.33.734.232 1.445-.408 1.313-1.152-.056-.32-.115-.711-.138-1.05a2.96 2.96 0 01-.004-.413.783.783 0 01.01-.083c.375-.621.591-1.329.591-2.082 0-.849-.264-1.624-.718-2.288z" fill="#787A80"/><path fill-rule="evenodd" clip-rule="evenodd" d="M3.731 4.3c-.899.687-1.398 1.589-1.398 2.534 0 .471.123.925.353 1.347.088.161.113.327.121.44.01.122.005.248-.005.365a5.847 5.847 0 01-.134.766c-.07.307-.162.635-.255.943.352-.128.737-.259 1.102-.365.295-.087.593-.161.858-.203.228-.036.56-.072.845.027a6.48 6.48 0 002.115.347c1.432 0 2.703-.445 3.602-1.132.899-.688 1.398-1.59 1.398-2.535 0-.945-.5-1.847-1.398-2.535-.9-.687-2.17-1.132-3.602-1.132-1.431 0-2.703.445-3.602 1.132zm-.81-1.06c1.152-.88 2.714-1.406 4.412-1.406s3.26.526 4.412 1.406c1.152.881 1.921 2.146 1.921 3.594s-.769 2.713-1.921 3.594c-1.152.88-2.714 1.406-4.412 1.406-.895 0-1.75-.146-2.527-.412 0 .003-.064-.004-.225.022-.186.03-.423.087-.693.165a20.59 20.59 0 00-1.599.558c-.796.31-1.606-.455-1.338-1.27.142-.43.31-.976.419-1.447.055-.237.09-.436.104-.584a1.16 1.16 0 00.005-.114A4.117 4.117 0 011 6.834c0-1.448.77-2.713 1.922-3.594z" fill="#787A80"/></svg><svg fill="none" viewBox="0 0 10 8" id="check" xmlns="http://www.w3.org/2000/svg"><path fill-rule="evenodd" clip-rule="evenodd" d="M9.828.195c.23.26.23.683 0 .943L3.945 7.805a.54.54 0 01-.832 0L.173 4.47a.731.731 0 010-.942.54.54 0 01.831 0L3.53 6.39 8.996.195a.54.54 0 01.832 0z" fill="#fff"/></svg><svg fill="none" viewBox="0 0 20 20" id="checked" xmlns="http://www.w3.org/2000/svg"><path d="M10 19.167c5.055 0 9.167-4.112 9.167-9.166 0-.873-.122-1.733-.363-2.556a.763.763 0 10-1.466.429c.2.684.302 1.4.302 2.127 0 4.212-3.427 7.639-7.64 7.639-4.211 0-7.638-3.427-7.638-7.64 0-4.211 3.427-7.638 7.639-7.638 1.53 0 3.003.447 4.259 1.294a.764.764 0 00.854-1.267A9.11 9.11 0 0010 .834C4.946.834.834 4.946.834 10.001c0 5.054 4.112 9.166 9.167 9.166z" fill="#FF5A30"/><path d="M18.578 1.911l-8.577 8.577-2.745-2.743a.833.833 0 00-1.178 1.178l3.333 3.333a.83.83 0 001.179 0l9.166-9.166a.833.833 0 00-1.178-1.179z" fill="#FF5A30"/></svg><svg fill="none" viewBox="0 0 16 16" id="checked-16" xmlns="http://www.w3.org/2000/svg"><path d="M8 15.333c4.043 0 7.333-3.29 7.333-7.334 0-.698-.098-1.385-.29-2.044a.61.61 0 10-1.174.343c.16.547.242 1.12.242 1.701a6.118 6.118 0 01-6.112 6.112 6.118 6.118 0 01-6.11-6.112 6.118 6.118 0 016.11-6.11 6.07 6.07 0 013.408 1.035.611.611 0 00.683-1.014A7.288 7.288 0 008 .666C3.955.666.665 3.956.665 7.999c0 4.044 3.29 7.334 7.333 7.334z" fill="#FF5A30"/><path d="M14.861 1.528L8 8.39 5.804 6.195a.667.667 0 00-.943.942l2.667 2.667a.664.664 0 00.943 0l7.333-7.333a.667.667 0 00-.943-.943z" fill="#FF5A30"/></svg><svg fill="none" viewBox="0 0 24 24" id="clip" xmlns="http://www.w3.org/2000/svg"><g clip-path="url(#anclip0_1522_492)"><path fill-rule="evenodd" clip-rule="evenodd" d="M18.43 3.935a4.625 4.625 0 00-6.54 0l-6.342 6.341a1 1 0 01-1.414-1.414l6.342-6.341a6.625 6.625 0 119.369 9.369l-8.531 8.53a4.75 4.75 0 11-6.718-6.717l.004-.004 6.44-6.37.003-.003c1.098-1.096 2.882-1.179 4.029-.032a2.875 2.875 0 010 4.065l-4.508 4.508a1 1 0 01-1.414-1.414l4.508-4.508a.875.875 0 000-1.237c-.318-.318-.837-.332-1.203.034l-.004.004-6.44 6.371-.002.002a2.75 2.75 0 003.89 3.887l8.531-8.53a4.625 4.625 0 000-6.541z" fill="#FF5A30"/></g><defs><clipPath id="anclip0_1522_492"><path fill="#fff" d="M0 0h24v24H0z"/></clipPath></defs></svg><svg fill="none" viewBox="0 0 16 17" id="clock" xmlns="http://www.w3.org/2000/svg"><path d="M8.666 4.833a.667.667 0 00-1.333 0v3.666c0 .177.07.347.195.472l2 2a.667.667 0 00.943-.943L8.666 8.223v-3.39z" fill="#787A80"/><path fill-rule="evenodd" clip-rule="evenodd" d="M8 1.166a7.333 7.333 0 100 14.667A7.333 7.333 0 008 1.166zM2 8.499a6 6 0 1112 0 6 6 0 01-12 0z" fill="#787A80"/></svg><svg viewBox="0 0 48 48" id="construction" xmlns="http://www.w3.org/2000/svg"><path d="M46.594 25.406c.776 0 1.406-.63 1.406-1.406V13.5c0-.777-.63-1.406-1.406-1.406H25.406V3c0-.777-.63-1.406-1.406-1.406H9c-.777 0-1.406.63-1.406 1.406v9.094H1.406C.63 12.094 0 12.724 0 13.5V24c0 .777.63 1.406 1.406 1.406h6.188v7.688H1.406C.63 33.094 0 33.724 0 34.5V45c0 .777.63 1.406 1.406 1.406h45.188c.776 0 1.406-.63 1.406-1.406V34.5c0-.777-.63-1.406-1.406-1.406h-6.188v-7.688h6.188zm-1.407-2.812h-12.28v-7.688h12.28v7.688zm-15.093 0H17.906v-7.688h12.188v7.688zM10.406 4.406h12.188v7.688H10.406V4.406zM2.812 22.594v-7.688h12.282v7.688H2.813zm7.594 2.812h12.188v7.688H10.406v-7.688zm-7.594 10.5h12.282v7.688H2.813v-7.688zm15.094 0h12.188v7.688H17.906v-7.688zm27.282 0v7.688H32.906v-7.688h12.282zm-7.594-2.812H25.406v-7.688h12.188v7.688z"/></svg><svg fill="none" viewBox="0 0 48 48" id="contract" xmlns="http://www.w3.org/2000/svg"><g clip-path="url(#aqclip0_2427_1209)" fill="#FF5A30"><path d="M16.62 9.248H8.228a1.406 1.406 0 100 2.813h8.392a1.406 1.406 0 000-2.813zM16.62 14.873H8.228a1.406 1.406 0 100 2.813h8.392a1.406 1.406 0 000-2.813zM16.62 20.498H8.228a1.406 1.406 0 100 2.813h8.392a1.406 1.406 0 000-2.813zM16.62 26.123H8.228a1.406 1.406 0 100 2.813h8.392a1.406 1.406 0 000-2.813zM16.62 31.844H8.228a1.406 1.406 0 000 2.812h8.392a1.406 1.406 0 000-2.812zM21.343 12.06h8.393a1.406 1.406 0 100-2.812h-8.393a1.406 1.406 0 000 2.813zM21.343 17.686h8.393a1.406 1.406 0 100-2.813h-8.393a1.406 1.406 0 000 2.813zM26.791 21.904c0-.776-.63-1.406-1.406-1.406h-4.042a1.406 1.406 0 000 2.813h4.042c.777 0 1.406-.63 1.406-1.407zM40.113 32.436a1.406 1.406 0 00-1.976.217l-3.622 4.516-2.243-1.625a1.406 1.406 0 10-1.65 2.278l3.327 2.41a1.402 1.402 0 001.922-.26l4.46-5.559a1.406 1.406 0 00-.218-1.977z"/><path d="M43.667 28.12a11.598 11.598 0 00-6.735-3.385V5.663A5.67 5.67 0 0031.268 0H6.695a5.67 5.67 0 00-5.664 5.663V38.24a5.67 5.67 0 005.664 5.664h19.764A11.576 11.576 0 0035.34 48c6.44 0 11.679-5.243 11.679-11.687a11.62 11.62 0 00-3.352-8.194zM3.844 38.239V5.663c0-1.571 1.279-2.85 2.851-2.85h24.573c1.572 0 2.851 1.279 2.851 2.85V24.69c-5.868.613-10.458 5.591-10.458 11.623 0 1.672.349 3.288 1.018 4.777H6.695a2.854 2.854 0 01-2.851-2.851zm31.496 6.949a8.8 8.8 0 01-7.084-3.538 8.802 8.802 0 01-1.783-5.337c0-4.893 3.978-8.874 8.867-8.874l.139.001h.022a8.81 8.81 0 016.16 2.65 8.826 8.826 0 012.545 6.223c0 4.893-3.977 8.874-8.866 8.874z"/></g><defs><clipPath id="aqclip0_2427_1209"><path fill="#fff" d="M0 0h48v48H0z"/></clipPath></defs></svg><svg fill="none" viewBox="0 0 16 16" id="cross" xmlns="http://www.w3.org/2000/svg"><path fill-rule="evenodd" clip-rule="evenodd" d="M.293.293a1 1 0 011.414 0L8 6.586 14.293.293a1 1 0 111.414 1.414L9.414 8l6.293 6.293a1 1 0 01-1.414 1.414L8 9.414l-6.293 6.293a1 1 0 01-1.414-1.414L6.586 8 .293 1.707a1 1 0 010-1.414z" fill="#787A80"/></svg><svg viewBox="0 0 24 24" id="facebook" xmlns="http://www.w3.org/2000/svg"><path d="M17.563 1.005L14.786 1c-3.12 0-5.137 2.125-5.137 5.414v2.497H6.857c-.242 0-.437.2-.437.448v3.617c0 .248.196.449.437.449h2.792v9.126c0 .248.195.449.437.449h3.643a.443.443 0 00.437-.449v-9.126h3.265c.241 0 .436-.2.436-.449l.002-3.617a.456.456 0 00-.128-.317.431.431 0 00-.31-.131h-3.265V6.794c0-1.017.236-1.533 1.525-1.533h1.871c.241 0 .437-.202.437-.45V1.454a.443.443 0 00-.436-.448z"/></svg><svg viewBox="0 0 32 32" id="facebook-32" xmlns="http://www.w3.org/2000/svg"><path d="M23.418 1.34l-3.703-.006c-4.16 0-6.849 2.833-6.849 7.219v3.328H9.143a.59.59 0 00-.582.599v4.822c0 .33.26.598.582.598h3.723v12.17c0 .33.26.597.582.597h4.858a.59.59 0 00.582-.598V17.9h4.354a.59.59 0 00.582-.598l.002-4.822a.607.607 0 00-.17-.423.574.574 0 00-.413-.176h-4.355V9.06c0-1.356.315-2.045 2.035-2.045h2.494A.59.59 0 0024 6.415V1.938a.59.59 0 00-.581-.598z"/></svg><svg fill="none" viewBox="0 0 20 20" id="facebook-white" xmlns="http://www.w3.org/2000/svg"><path d="M14.635.838L12.321.834c-2.6 0-4.28 1.77-4.28 4.512v2.08H5.714a.369.369 0 00-.364.374v3.014c0 .207.163.374.364.374H8.04v7.606c0 .206.162.373.363.373h3.037a.369.369 0 00.364-.373v-7.606h2.72a.369.369 0 00.364-.374L14.89 7.8a.38.38 0 00-.106-.264.36.36 0 00-.258-.11h-2.721V5.663c0-.848.196-1.278 1.27-1.278h1.56c.2 0 .364-.168.364-.375V1.212a.37.37 0 00-.364-.374z" fill="#fff"/></svg><svg fill="none" viewBox="0 0 48 48" id="hand" xmlns="http://www.w3.org/2000/svg"><g clip-path="url(#avclip0_2384_1306)" fill="#FF5A30"><path d="M7 44H1.5A1.5 1.5 0 010 42.5v-17A1.5 1.5 0 011.5 24c7.012 0 10.276 2.434 10.41 2.538a1.5 1.5 0 01.538 1.584l-4 14.772A1.5 1.5 0 017 44zm-4-3h2.852l3.396-12.542c-1.046-.494-3.09-1.23-6.248-1.414V41z"/><path d="M26 48c-4.518 0-12.846-3.458-19.038-6.362a1.5 1.5 0 011.274-2.718C16.476 42.786 22.952 45 26 45c4.056 0 13.264-4.382 18.09-6.91-.556-.318-1.384-.59-2.59-.59-1.76 0-3.93.72-6.028 1.416-.682.226-1.362.452-2.036.658-1.484.458-3.236.926-4.938.926-4.214 0-9.778-2.004-10.012-2.09a1.499 1.499 0 01-.898-1.922 1.503 1.503 0 011.922-.898c.052.02 5.304 1.91 8.988 1.91 1.312 0 2.858-.424 4.058-.794.652-.2 1.31-.418 1.968-.636 2.324-.772 4.726-1.57 6.972-1.57 4.958 0 6.336 3.302 6.392 3.444a1.5 1.5 0 01-.668 1.87C46.62 40.148 32.314 48 26 48z"/><path d="M33 39.68a1.5 1.5 0 01-1.5-1.5v-.9a2.51 2.51 0 00-2-2.45l-19.262-3.94a1.5 1.5 0 01.602-2.939l19.262 3.94a5.52 5.52 0 014.398 5.39v.9A1.5 1.5 0 0133 39.68zM36 28c-.2 0-.398-.041-.586-.121C34.948 27.681 24 22.915 24 13.107V5.071a1.5 1.5 0 011.018-1.42L35.518.08c.312-.108.652-.108.964 0l10.5 3.572c.61.206 1.018.776 1.018 1.42v8.036c0 9.808-10.948 14.576-11.414 14.774A1.527 1.527 0 0136 28zM27 6.144v6.962c0 6.696 6.91 10.682 8.998 11.732C38.082 23.783 45 19.777 45 13.107V6.145l-9-3.062-9 3.062z"/><path d="M35.5 19c-.397 0-.78-.158-1.06-.44l-4-4a1.5 1.5 0 112.122-2.122l2.778 2.778L40.3 8.6a1.499 1.499 0 112.398 1.8l-6 8c-.26.348-.659.566-1.095.596-.034.004-.068.004-.104.004z"/></g><defs><clipPath id="avclip0_2384_1306"><path fill="#fff" d="M0 0h48v48H0z"/></clipPath></defs></svg><svg fill="none" viewBox="0 0 16 16" id="heart" xmlns="http://www.w3.org/2000/svg"><path fill-rule="evenodd" clip-rule="evenodd" d="M8 13.271C4.932 11.525 3.222 9.79 2.395 8.284c-.846-1.542-.772-2.84-.303-3.761.966-1.894 3.71-2.5 5.383-.384L8 4.8l.523-.661c1.673-2.116 4.418-1.51 5.383.384.47.921.544 2.22-.303 3.76-.826 1.507-2.537 3.242-5.603 4.989zM8 2.737C5.645.502 2.175 1.426.904 3.917.208 5.285.2 7.052 1.228 8.925c1.019 1.857 3.052 3.817 6.449 5.694l.322.179.323-.179c3.397-1.877 5.43-3.837 6.45-5.694 1.028-1.873 1.018-3.64.321-5.008C13.823 1.426 10.353.502 8 2.737z" fill="#FF5A30"/></svg><svg fill="none" viewBox="0 0 48 48" id="helmet" xmlns="http://www.w3.org/2000/svg"><path d="M45.188 34.086v-4.461c0-4.63-1.494-9.031-4.318-12.727a21.497 21.497 0 00-9.844-7.166 4.224 4.224 0 00-4.213-4.013h-5.625a4.224 4.224 0 00-4.214 4.013 21.497 21.497 0 00-9.844 7.166c-2.825 3.696-4.317 8.097-4.317 12.727v4.46A4.225 4.225 0 000 38.063a4.224 4.224 0 004.219 4.22H43.78A4.223 4.223 0 0048 38.061a4.225 4.225 0 00-2.813-3.976zM5.624 29.625c0-5.071 2.166-9.818 5.719-13.205v4.767a1.406 1.406 0 002.812 0v-6.973a18.292 18.292 0 012.813-1.47V24a1.406 1.406 0 002.812 0V10.775v-.837c0-.776.631-1.407 1.407-1.407h5.625c.775 0 1.406.631 1.406 1.406V24a1.406 1.406 0 002.812 0V12.744c.987.411 1.927.905 2.813 1.47v6.973a1.406 1.406 0 002.812 0V16.42c3.553 3.387 5.719 8.134 5.719 13.205v4.219H5.625v-4.219zm38.156 9.844H4.22a1.408 1.408 0 010-2.813H43.78a1.408 1.408 0 010 2.813z" fill="#FF5A30"/></svg><svg fill="none" viewBox="0 0 48 48" id="helmet-gray" xmlns="http://www.w3.org/2000/svg"><path d="M45.188 34.086v-4.461c0-4.63-1.494-9.031-4.318-12.727a21.497 21.497 0 00-9.844-7.166 4.224 4.224 0 00-4.213-4.013h-5.625a4.224 4.224 0 00-4.214 4.013 21.497 21.497 0 00-9.844 7.166c-2.825 3.696-4.317 8.097-4.317 12.727v4.46A4.225 4.225 0 000 38.063a4.224 4.224 0 004.219 4.22H43.78A4.223 4.223 0 0048 38.061a4.225 4.225 0 00-2.813-3.976zM5.624 29.625c0-5.071 2.166-9.818 5.719-13.205v4.767a1.406 1.406 0 002.812 0v-6.973a18.292 18.292 0 012.813-1.47V24a1.406 1.406 0 002.812 0V10.775v-.837c0-.776.631-1.407 1.407-1.407h5.625c.775 0 1.406.631 1.406 1.406V24a1.406 1.406 0 002.812 0V12.744c.987.411 1.927.905 2.813 1.47v6.973a1.406 1.406 0 002.812 0V16.42c3.553 3.387 5.719 8.134 5.719 13.205v4.219H5.625v-4.219zm38.156 9.844H4.22a1.408 1.408 0 010-2.813H43.78a1.408 1.408 0 010 2.813z" fill="#9A9CA5"/></svg><svg viewBox="0 0 48 48" id="house" xmlns="http://www.w3.org/2000/svg"><g clip-path="url(#azclip0_2432_1337)"><path d="M28.922 21.094c-1.957 0-3.657.891-4.922 2.58-1.266-1.689-2.965-2.58-4.922-2.58-3.655 0-6.328 3.004-6.328 6.69 0 4.766 4.619 7.76 10.335 12.659a1.402 1.402 0 001.83 0c5.723-4.905 10.335-7.895 10.335-12.659 0-3.683-2.67-6.69-6.328-6.69zM24 37.529c-5.15-4.351-8.438-6.697-8.438-9.745 0-2.21 1.512-3.878 3.516-3.878 2.606 0 3.529 3.06 3.57 3.198a1.407 1.407 0 002.706-.006c.009-.032.924-3.192 3.568-3.192 2.004 0 3.515 1.667 3.515 3.878 0 3.05-3.291 5.398-8.437 9.745z"/><path d="M46.593 45.188h-4.218V23.345l.024.017a1.406 1.406 0 001.944-.299l3.376-4.499a1.41 1.41 0 00-.302-1.984L24.83.272a1.406 1.406 0 00-1.656-.003l-9.111 6.579V4.22c0-.777-.63-1.407-1.407-1.407H7.031c-.776 0-1.406.63-1.406 1.407v8.72L.583 16.58a1.406 1.406 0 00-.301 1.984l3.375 4.499a1.406 1.406 0 001.944.299l.024-.017v21.843H1.406a1.406 1.406 0 100 2.813h45.187a1.406 1.406 0 000-2.813zM8.437 5.626h2.813v3.253l-2.813 2.03V5.626zM5.082 20.274l-1.69-2.252L24 3.142l20.61 14.88-1.69 2.252L24.822 7.298a1.406 1.406 0 00-1.645 0c-.319.23-17.694 12.688-18.096 12.976zm3.356 1.054C18.767 13.92 22.587 11.183 24 10.168c1.91 1.37 7.12 5.107 15.563 11.16v23.86H8.436v-23.86z"/></g><defs><clipPath id="azclip0_2432_1337"><path d="M0 0h48v48H0z"/></clipPath></defs></svg><svg viewBox="0 0 40 40" id="ichat" xmlns="http://www.w3.org/2000/svg"><path fill-rule="evenodd" clip-rule="evenodd" d="M36.539 17.611a12.92 12.92 0 01-1.634 4.645c.063.356.095.716.095 1.077 0 1.255-.364 2.456-1.037 3.547-.337.544-.423 1.182-.456 1.604-.038.483-.026 1.012.009 1.52.039.57.109 1.168.189 1.732-.65-.19-1.356-.38-2.029-.532a14.5 14.5 0 00-1.65-.288c-.453-.046-1.107-.082-1.692.107a13.56 13.56 0 01-4.168.643c-1.763 0-3.382-.313-4.802-.856-.341.015-.685.023-1.031.023a22.06 22.06 0 01-5.748-.752C15.213 33.121 19.546 35 24.166 35c1.805 0 3.537-.277 5.134-.786h.015c.041-.002.155-.004.368.018.334.035.764.112 1.26.224.987.222 2.096.551 2.961.825 1.834.583 3.61-1.018 3.283-2.878-.141-.801-.288-1.778-.345-2.625a7.402 7.402 0 01-.012-1.032c.008-.106.019-.173.026-.208.937-1.553 1.477-3.322 1.477-5.205 0-2.122-.66-4.06-1.794-5.722z" fill="#FFF"/><path fill-rule="evenodd" clip-rule="evenodd" d="M9.328 9.497c-2.247 1.718-3.495 3.973-3.495 6.336 0 1.178.306 2.313.882 3.369.22.402.281.816.304 1.097.024.306.012.62-.015.915-.053.589-.18 1.256-.333 1.913a38.712 38.712 0 01-.639 2.359c.88-.32 1.843-.648 2.755-.914a17.944 17.944 0 012.145-.507c.57-.09 1.4-.179 2.112.068 1.6.554 3.391.867 5.289.867 3.578 0 6.757-1.111 9.005-2.83 2.246-1.719 3.495-3.974 3.495-6.337 0-2.363-1.249-4.618-3.495-6.336-2.248-1.72-5.427-2.83-9.005-2.83-3.579 0-6.757 1.11-9.005 2.83zM7.303 6.849c2.88-2.202 6.784-3.516 11.03-3.516 4.245 0 8.15 1.314 11.03 3.516 2.88 2.203 4.803 5.364 4.803 8.984s-1.923 6.781-4.804 8.984c-2.879 2.202-6.784 3.516-11.03 3.516-2.238 0-4.376-.365-6.317-1.029-.002.006-.16-.01-.563.054-.464.073-1.057.217-1.731.414-1.343.392-2.85.946-3.998 1.393-1.99.774-4.016-1.137-3.346-3.172.355-1.079.774-2.442 1.047-3.619.138-.593.227-1.091.26-1.46a2.9 2.9 0 00.014-.285A10.293 10.293 0 012.5 15.833c0-3.62 1.923-6.781 4.804-8.984zm-3.61 13.689l.002.014a.092.092 0 01-.002-.014z" fill="#FFF"/></svg><svg viewBox="0 0 40 40" id="iphone" xmlns="http://www.w3.org/2000/svg"><path fill-rule="evenodd" clip-rule="evenodd" d="M14.166 4.87a2.5 2.5 0 00-2.5 2.5v25.26a2.5 2.5 0 002.5 2.5h11.667a2.5 2.5 0 002.5-2.5V7.37a2.5 2.5 0 00-2.5-2.5h-.139l-.406.974a1.667 1.667 0 01-1.538 1.025h-7.5c-.673 0-1.28-.404-1.539-1.025l-.406-.975h-.139zm-5.833 2.5a5.833 5.833 0 015.833-5.834h11.667a5.833 5.833 0 015.833 5.833v25.26a5.833 5.833 0 01-5.833 5.834H14.166a5.833 5.833 0 01-5.833-5.833V7.37z" fill="#FFF"/></svg><svg fill="none" viewBox="0 0 48 48" id="like" xmlns="http://www.w3.org/2000/svg"><path d="M44.017 29.719a4.204 4.204 0 001.077-2.813 4.224 4.224 0 00-4.219-4.218h-8.188c.81-2.461 1.157-5.727 1.157-7.126v-1.406a5.632 5.632 0 00-5.625-5.625h-1.407c-.645 0-1.207.439-1.364 1.065l-.765 3.065c-1.074 4.292-4.482 9.027-8.009 9.888a4.225 4.225 0 00-3.924-2.674H4.312c-.776 0-1.406.63-1.406 1.406v25.313c0 .776.63 1.406 1.406 1.406h8.438a4.223 4.223 0 003.808-2.405l4.832 1.61c1.58.528 3.226.795 4.892.795h11.78a4.224 4.224 0 003.923-5.773 4.227 4.227 0 003.109-4.07 4.203 4.203 0 00-1.077-2.813 4.204 4.204 0 001.077-2.813 4.203 4.203 0 00-1.077-2.812zM14.157 43.78c0 .776-.632 1.407-1.407 1.407H5.719v-22.5h7.031c.775 0 1.406.63 1.406 1.406V43.78zm23.905-12.656h2.813c.775 0 1.406.63 1.406 1.406 0 .776-.63 1.407-1.406 1.407h-2.813a1.407 1.407 0 000 2.812h2.813c.775 0 1.406.63 1.406 1.406 0 .776-.63 1.407-1.406 1.407h-2.813a1.407 1.407 0 000 2.812c.776 0 1.407.63 1.407 1.406 0 .776-.631 1.407-1.407 1.407h-11.78c-1.363 0-2.71-.219-4.003-.65l-5.31-1.77V25.367c2.206-.42 4.365-1.816 6.314-4.103 1.903-2.233 3.446-5.193 4.128-7.92l.5-2h.308a2.816 2.816 0 012.812 2.812v1.406c0 1.888-.59 5.51-1.346 7.126h-2.872a1.407 1.407 0 000 2.812h14.062c.775 0 1.406.63 1.406 1.406 0 .776-.63 1.407-1.406 1.407h-2.813a1.407 1.407 0 000 2.812z" fill="#FF5A30"/><path d="M9.938 42.375a1.406 1.406 0 100-2.813 1.406 1.406 0 000 2.813zM29.625 0c-.777 0-1.406.63-1.406 1.406v2.907a1.406 1.406 0 002.812 0V1.405C31.031.63 30.401 0 29.625 0zM23.659 6.201L21.67 4.213A1.406 1.406 0 1019.681 6.2l1.99 1.99a1.406 1.406 0 001.988-1.99zM39.569 4.213c-.55-.55-1.44-.55-1.989 0L35.592 6.2a1.406 1.406 0 101.988 1.99L39.57 6.2c.55-.549.55-1.44 0-1.988z" fill="#FF5A30"/></svg><svg fill="none" viewBox="0 0 48 48" id="like-gray" xmlns="http://www.w3.org/2000/svg"><path d="M44.017 29.719a4.204 4.204 0 001.077-2.813 4.224 4.224 0 00-4.219-4.218h-8.188c.81-2.461 1.157-5.727 1.157-7.126v-1.406a5.632 5.632 0 00-5.625-5.625h-1.407c-.645 0-1.207.439-1.364 1.065l-.765 3.065c-1.074 4.292-4.482 9.027-8.009 9.888a4.225 4.225 0 00-3.924-2.674H4.312c-.776 0-1.406.63-1.406 1.406v25.313c0 .776.63 1.406 1.406 1.406h8.438a4.223 4.223 0 003.808-2.405l4.832 1.61c1.58.528 3.226.795 4.892.795h11.78a4.224 4.224 0 003.923-5.773 4.227 4.227 0 003.109-4.07 4.203 4.203 0 00-1.077-2.813 4.204 4.204 0 001.077-2.813 4.203 4.203 0 00-1.077-2.812zM14.157 43.78c0 .776-.632 1.407-1.407 1.407H5.719v-22.5h7.031c.775 0 1.406.63 1.406 1.406V43.78zm23.905-12.656h2.813c.775 0 1.406.63 1.406 1.406 0 .776-.63 1.407-1.406 1.407h-2.813a1.407 1.407 0 000 2.812h2.813c.775 0 1.406.63 1.406 1.406 0 .776-.63 1.407-1.406 1.407h-2.813a1.407 1.407 0 000 2.812c.776 0 1.407.63 1.407 1.406 0 .776-.631 1.407-1.407 1.407h-11.78c-1.363 0-2.71-.219-4.003-.65l-5.31-1.77V25.367c2.206-.42 4.365-1.816 6.314-4.103 1.903-2.233 3.446-5.193 4.128-7.92l.5-2h.308a2.816 2.816 0 012.812 2.812v1.406c0 1.888-.59 5.51-1.346 7.126h-2.872a1.407 1.407 0 000 2.812h14.062c.775 0 1.406.63 1.406 1.406 0 .776-.63 1.407-1.406 1.407h-2.813a1.407 1.407 0 000 2.812z" fill="#9A9CA5"/><path d="M9.938 42.375a1.406 1.406 0 100-2.813 1.406 1.406 0 000 2.813zM29.625 0c-.777 0-1.406.63-1.406 1.406v2.907a1.406 1.406 0 002.812 0V1.405C31.031.63 30.401 0 29.625 0zM23.659 6.201L21.67 4.213A1.406 1.406 0 1019.681 6.2l1.99 1.99a1.406 1.406 0 001.988-1.99zM39.569 4.213c-.55-.55-1.44-.55-1.989 0L35.592 6.2a1.406 1.406 0 101.988 1.99L39.57 6.2c.55-.549.55-1.44 0-1.988z" fill="#9A9CA5"/></svg><svg fill="none" viewBox="0 0 209 1" id="line" xmlns="http://www.w3.org/2000/svg"><path stroke="#D7DADD" stroke-linecap="round" stroke-dasharray="4 4" d="M.5.5h208"/></svg><svg viewBox="0 0 24 24" id="linked-In" xmlns="http://www.w3.org/2000/svg"><path d="M21.995 22H22v-7.336c0-3.588-.773-6.352-4.968-6.352-2.016 0-3.37 1.106-3.922 2.155h-.058v-1.82H9.074v13.352h4.142v-6.611c0-1.741.33-3.425 2.486-3.425 2.124 0 2.156 1.987 2.156 3.536V22h4.137zM2.33 8.648h4.147V22H2.33V8.648zM4.402 2A2.402 2.402 0 002 4.402c0 1.325 1.076 2.424 2.402 2.424 1.325 0 2.401-1.098 2.401-2.424A2.403 2.403 0 004.402 2z"/></svg><svg fill="none" viewBox="0 0 20 20" id="linkedin" xmlns="http://www.w3.org/2000/svg"><path d="M18.328 18.333l.005-.001v-6.113c0-2.99-.644-5.293-4.14-5.293-1.68 0-2.808.922-3.269 1.796h-.048V7.205H7.56v11.127h3.451v-5.51c0-1.45.275-2.853 2.072-2.853 1.77 0 1.797 1.655 1.797 2.946v5.418h3.447zM1.941 7.206h3.456v11.127H1.94V7.206zM3.667 1.666a2.002 2.002 0 00-2.001 2.001c0 1.105.897 2.02 2.001 2.02 1.105 0 2.002-.915 2.002-2.02a2.003 2.003 0 00-2.002-2.001z" fill="#fff"/></svg><svg viewBox="0 0 24 24" id="messanger" xmlns="http://www.w3.org/2000/svg"><path d="M12 2C6.478 2 2 6.145 2 11.259c0 2.913 1.454 5.512 3.726 7.21V22l3.405-1.869c.909.252 1.871.388 2.869.388 5.523 0 10-4.145 10-9.259C22 6.146 17.523 2 12 2zm.994 12.469l-2.546-2.716-4.97 2.716 5.467-5.803 2.609 2.716 4.906-2.716-5.466 5.803z"/></svg><svg viewBox="0 0 32 32" id="messanger-32" xmlns="http://www.w3.org/2000/svg"><path d="M16 2.666c-7.364 0-13.334 5.527-13.334 12.345 0 3.885 1.938 7.35 4.968 9.613v4.709l4.54-2.492a14.34 14.34 0 003.825.517c7.364 0 13.334-5.527 13.334-12.345 0-6.819-5.97-12.347-13.334-12.347zm1.324 16.625l-3.395-3.622-6.625 3.622 7.289-7.737 3.478 3.622 6.542-3.622-7.289 7.737z"/></svg><svg viewBox="0 0 24 24" id="next" xmlns="http://www.w3.org/2000/svg"><path fill-rule="evenodd" clip-rule="evenodd" d="M14.793 6.793a1 1 0 011.414 0l4.5 4.5a1 1 0 010 1.414l-4.5 4.5a1 1 0 01-1.414-1.414L17.586 13H4a1 1 0 110-2h13.586l-2.793-2.793a1 1 0 010-1.414z"/></svg><svg fill="none" viewBox="0 0 16 17" id="outline" xmlns="http://www.w3.org/2000/svg"><path fill-rule="evenodd" clip-rule="evenodd" d="M8 5.667a1.333 1.333 0 100 2.667 1.333 1.333 0 000-2.667zM5.335 7.001a2.667 2.667 0 115.333 0 2.667 2.667 0 01-5.333 0z" fill="#787A80"/><path fill-rule="evenodd" clip-rule="evenodd" d="M8 2.667c-2.412 0-4.333 1.891-4.333 4.18 0 1.866 1.122 3.75 2.347 5.232a18.612 18.612 0 001.987 2.048 18.61 18.61 0 001.986-2.048c1.226-1.482 2.347-3.366 2.347-5.232 0-2.289-1.92-4.18-4.333-4.18zm0 12.334l-.412.523-.002-.001-.004-.003-.013-.01a8.622 8.622 0 01-.214-.178 19.944 19.944 0 01-2.368-2.402c-1.274-1.542-2.653-3.734-2.653-6.083 0-3.064 2.557-5.513 5.667-5.513s5.666 2.449 5.666 5.513c0 2.349-1.378 4.541-2.653 6.082a19.948 19.948 0 01-2.367 2.403 11.273 11.273 0 01-.215.177l-.013.01-.004.004h-.001l-.413-.522zm0 0l.413.523a.667.667 0 01-.825 0L8 15.001z" fill="#787A80"/></svg><svg viewBox="0 0 53 52" id="painting" xmlns="http://www.w3.org/2000/svg"><path d="M43.36 4.57c0-2.52-2.05-4.57-4.57-4.57H8.32C5.8 0 3.75 2.05 3.75 4.57v9.14c0 2.521 2.05 4.571 4.57 4.571h30.47c2.52 0 4.57-2.05 4.57-4.57v-1.524h1.523c.84 0 1.523.684 1.523 1.524v6.094c0 .84-.683 1.523-1.523 1.523H26.602c-2.52 0-4.57 2.05-4.57 4.57v4.57h-1.524c-.842 0-1.524.683-1.524 1.524v6.011l-1.523 6.192C16.47 48.157 19.464 52 23.555 52c4.092 0 7.083-3.847 6.095-7.8l-1.525-6.197v-6.01c0-.842-.682-1.524-1.523-1.524h-1.524v-4.57c0-.84.684-1.524 1.524-1.524h18.28c2.52 0 4.571-2.05 4.571-4.57V13.71c0-2.52-2.05-4.57-4.57-4.57h-1.524V4.57zM25.077 33.516v3.148h-3.047v-3.148h3.047zm-1.523 15.437a3.234 3.234 0 01-3.137-4.024l1.284-5.218h3.705l1.285 5.223a3.234 3.234 0 01-3.137 4.02zM8.32 3.047h30.47c.839 0 1.523.683 1.523 1.523v1.524h-4.57c-1.481 0-3.375.554-5.567 1.196-2.961.868-6.317 1.85-9.668 1.85-3.267 0-5.57-.954-7.602-1.795-1.554-.643-3.02-1.251-4.586-1.251H6.797V4.57c0-.84.683-1.523 1.523-1.523zM40.312 13.71c0 .84-.683 1.523-1.523 1.523H8.32c-.84 0-1.523-.683-1.523-1.523V9.14H8.32c.96 0 2.045.45 3.42 1.019 2.18.903 4.895 2.027 8.768 2.027 3.788 0 7.523-1.094 10.525-1.972 1.885-.553 3.666-1.074 4.71-1.074h4.57v4.57z"/></svg><svg fill="none" viewBox="0 0 48 48" id="painting-gray" xmlns="http://www.w3.org/2000/svg"><path d="M39.563 4.219A4.224 4.224 0 0035.343 0H7.22A4.224 4.224 0 003 4.219v8.437a4.224 4.224 0 004.219 4.219h28.125a4.224 4.224 0 004.218-4.219V11.25h1.407c.775 0 1.406.631 1.406 1.406v5.625c0 .776-.631 1.407-1.406 1.407H24.094a4.224 4.224 0 00-4.219 4.218v4.219h-1.406c-.777 0-1.407.63-1.407 1.406v5.549l-1.406 5.715C14.742 44.453 17.506 48 21.281 48c3.778 0 6.539-3.55 5.627-7.2L25.5 35.08V29.53c0-.776-.63-1.406-1.406-1.406h-1.407v-4.219c0-.775.631-1.406 1.407-1.406h16.875a4.224 4.224 0 004.218-4.219v-5.625a4.224 4.224 0 00-4.218-4.219h-1.407V4.22zM22.686 30.937v2.907h-2.812v-2.907h2.813zm-1.406 14.25a2.985 2.985 0 01-2.895-3.714l1.185-4.817h3.42l1.187 4.822a2.985 2.985 0 01-2.897 3.71zM7.22 2.813h28.125c.775 0 1.406.63 1.406 1.406v1.406h-4.219c-1.366 0-3.114.512-5.138 1.104-2.733.801-5.83 1.708-8.924 1.708-3.016 0-5.142-.88-7.017-1.657-1.434-.594-2.789-1.155-4.233-1.155H5.812V4.219c0-.776.631-1.407 1.407-1.407zm29.531 9.843c0 .775-.631 1.406-1.406 1.406H7.219a1.408 1.408 0 01-1.407-1.406V8.437H7.22c.885 0 1.888.416 3.157.941 2.013.834 4.518 1.872 8.093 1.872 3.497 0 6.944-1.01 9.715-1.821 1.74-.51 3.384-.992 4.347-.992h4.219v4.22z" fill="#9A9CA5"/></svg><svg viewBox="0 0 48 48" id="painting-work" xmlns="http://www.w3.org/2000/svg"><path d="M39.563 4.219A4.224 4.224 0 0035.343 0H7.22A4.224 4.224 0 003 4.219v8.437a4.224 4.224 0 004.219 4.219h28.125a4.224 4.224 0 004.218-4.219V11.25h1.407c.775 0 1.406.631 1.406 1.406v5.625c0 .776-.631 1.407-1.406 1.407H24.094a4.224 4.224 0 00-4.219 4.218v4.219h-1.406c-.777 0-1.407.63-1.407 1.406v5.549l-1.406 5.715C14.742 44.453 17.506 48 21.281 48c3.778 0 6.539-3.55 5.627-7.2L25.5 35.08V29.53c0-.776-.63-1.406-1.406-1.406h-1.407v-4.219c0-.775.631-1.406 1.407-1.406h16.875a4.224 4.224 0 004.218-4.219v-5.625a4.224 4.224 0 00-4.218-4.219h-1.407V4.22zM22.686 30.937v2.907h-2.812v-2.907h2.813zm-1.406 14.25a2.985 2.985 0 01-2.895-3.714l1.185-4.817h3.42l1.187 4.822a2.985 2.985 0 01-2.897 3.71zM7.22 2.813h28.125c.775 0 1.406.63 1.406 1.406v1.406h-4.219c-1.366 0-3.114.512-5.138 1.104-2.733.801-5.83 1.708-8.924 1.708-3.016 0-5.142-.88-7.017-1.657-1.434-.594-2.789-1.155-4.233-1.155H5.812V4.219c0-.776.631-1.407 1.407-1.407zm29.531 9.843c0 .775-.631 1.406-1.406 1.406H7.219a1.408 1.408 0 01-1.407-1.406V8.437H7.22c.885 0 1.888.416 3.157.941 2.013.834 4.518 1.872 8.093 1.872 3.497 0 6.944-1.01 9.715-1.821 1.74-.51 3.384-.992 4.347-.992h4.219v4.22z"/></svg><svg viewBox="0 0 53 52" id="pantone" xmlns="http://www.w3.org/2000/svg"><g clip-path="url(#boclip0_2392_399)"><path d="M11.266 36.664c-2.52 0-4.57 2.05-4.57 4.57 0 2.52 2.05 4.57 4.57 4.57 2.52 0 4.57-2.05 4.57-4.57 0-2.52-2.05-4.57-4.57-4.57zm0 6.094c-.84 0-1.524-.684-1.524-1.524s.684-1.523 1.524-1.523 1.523.683 1.523 1.523c0 .84-.683 1.524-1.523 1.524z" fill="#fff"/><path d="M49.75 30.95a4.572 4.572 0 00.286-5.005l-6.09-10.65c-1.054-1.825-3.276-2.658-5.258-2.128a4.579 4.579 0 00-2.176-4.954L25.958 2.12a4.574 4.574 0 00-4.695.076A4.572 4.572 0 0017.359 0H5.07C2.55 0 .5 2.05.5 4.57v42.86C.5 49.95 2.55 52 5.07 52h42.86c2.52 0 4.57-2.05 4.57-4.57V35.14a4.576 4.576 0 00-2.75-4.19zM18.883 47.43c0 .84-.684 1.523-1.524 1.523H5.07c-.84 0-1.523-.683-1.523-1.523V33.617h15.336V47.43zm0-16.86H3.547V18.281h15.336v12.29zm0-15.336H3.547V4.57c0-.84.683-1.523 1.523-1.523h12.29c.84 0 1.523.683 1.523 1.523v10.664zM21.93 6.05l.423-.734a1.526 1.526 0 012.082-.558l10.554 6.094c.728.42.978 1.354.557 2.083l-1.76 3.06a1.517 1.517 0 00-.118.203L21.93 36.603V6.05zm0 36.663L36.17 17.958l2.945-1.7c.746-.43 1.77-.17 2.188.555l6.09 10.65c.422.73.176 1.665-.561 2.09L21.93 43.972v-1.258zm27.523 4.717c0 .84-.683 1.523-1.523 1.523H21.668c.162-.458.253-.95.26-1.46l23.967-13.876h2.035c.84 0 1.523.684 1.523 1.524V47.43z"/></g><defs><clipPath id="boclip0_2392_399"><path fill="#fff" transform="translate(.5)" d="M0 0h52v52H0z"/></clipPath></defs></svg><svg fill="none" viewBox="0 0 49 48" id="pantone-gray" xmlns="http://www.w3.org/2000/svg"><g clip-path="url(#bpclip0_1499_1692)" fill="#9A9CA5"><path d="M10.438 33.844a4.224 4.224 0 00-4.22 4.218 4.224 4.224 0 004.22 4.22 4.223 4.223 0 004.218-4.22 4.223 4.223 0 00-4.219-4.218zm0 5.625a1.408 1.408 0 010-2.813c.775 0 1.406.631 1.406 1.407 0 .775-.631 1.406-1.406 1.406z"/><path d="M45.962 28.569a4.22 4.22 0 00.264-4.62l-5.623-9.831c-.972-1.684-3.023-2.453-4.852-1.964a4.227 4.227 0 00-2.009-4.573L24 1.957a4.222 4.222 0 00-4.334.07A4.22 4.22 0 0016.062 0H4.72A4.224 4.224 0 00.5 4.219V43.78A4.224 4.224 0 004.719 48H44.28a4.224 4.224 0 004.219-4.219V32.438a4.224 4.224 0 00-2.538-3.869zM17.469 43.781c0 .776-.631 1.407-1.407 1.407H4.72c-.776 0-1.407-.631-1.407-1.407v-12.75H17.47v12.75zm0-15.562H3.312V16.875H17.47v11.344zm0-14.157H3.312V4.22c0-.776.631-1.407 1.407-1.407h11.343c.776 0 1.407.631 1.407 1.407v9.843zm2.812-8.477l.391-.678a1.408 1.408 0 011.922-.515l9.742 5.625c.672.388.903 1.25.514 1.923l-1.625 2.825c-.04.06-.077.122-.108.187L20.28 33.787V5.584zm0 33.842l13.146-22.85 2.718-1.57c.69-.397 1.634-.156 2.02.512l5.622 9.832a1.411 1.411 0 01-.518 1.93c-1.005.58-21.999 12.735-22.988 13.308v-1.162zm25.407 4.354c0 .776-.631 1.407-1.407 1.407H20.04c.15-.423.234-.877.24-1.349l22.124-12.808h1.878c.776 0 1.407.631 1.407 1.407V43.78z"/></g><defs><clipPath id="bpclip0_1499_1692"><path fill="#fff" transform="translate(.5)" d="M0 0h48v48H0z"/></clipPath></defs></svg><svg viewBox="0 0 48 48" id="pantone-work" xmlns="http://www.w3.org/2000/svg"><path d="M9.938 33.844a4.224 4.224 0 00-4.22 4.218 4.224 4.224 0 004.22 4.22 4.223 4.223 0 004.218-4.22 4.223 4.223 0 00-4.219-4.218zm0 5.625a1.408 1.408 0 010-2.813c.775 0 1.406.631 1.406 1.407 0 .775-.631 1.406-1.406 1.406z"/><path d="M45.462 28.569a4.22 4.22 0 00.264-4.62l-5.623-9.831c-.972-1.684-3.023-2.453-4.852-1.964a4.227 4.227 0 00-2.009-4.573L23.5 1.957a4.222 4.222 0 00-4.334.07A4.22 4.22 0 0015.562 0H4.22A4.224 4.224 0 000 4.219V43.78A4.224 4.224 0 004.219 48H43.78A4.224 4.224 0 0048 43.781V32.438a4.224 4.224 0 00-2.538-3.869zM16.969 43.781c0 .776-.631 1.407-1.407 1.407H4.22c-.776 0-1.407-.631-1.407-1.407v-12.75H16.97v12.75zm0-15.562H2.812V16.875H16.97v11.344zm0-14.157H2.812V4.22c0-.776.631-1.407 1.407-1.407h11.343c.776 0 1.407.631 1.407 1.407v9.843zm2.812-8.477l.391-.678a1.408 1.408 0 011.922-.515l9.742 5.625c.672.388.903 1.25.514 1.923l-1.625 2.825c-.04.06-.077.122-.108.187L19.78 33.787V5.584zm0 33.842l13.146-22.85 2.718-1.57c.69-.397 1.634-.156 2.02.512l5.622 9.832a1.411 1.411 0 01-.518 1.93c-1.005.58-21.999 12.735-22.988 13.308v-1.162zm25.407 4.354c0 .776-.631 1.407-1.407 1.407H19.54c.15-.423.234-.877.24-1.349l22.124-12.808h1.878c.776 0 1.407.631 1.407 1.407V43.78z"/></svg><svg fill="none" viewBox="0 0 40 40" id="phone" xmlns="http://www.w3.org/2000/svg"><path fill-rule="evenodd" clip-rule="evenodd" d="M14.166 4.87a2.5 2.5 0 00-2.5 2.5v25.26a2.5 2.5 0 002.5 2.5h11.667a2.5 2.5 0 002.5-2.5V7.37a2.5 2.5 0 00-2.5-2.5h-.139l-.406.974a1.667 1.667 0 01-1.538 1.025h-7.5c-.673 0-1.28-.404-1.539-1.025l-.406-.975h-.139zm-5.833 2.5a5.833 5.833 0 015.833-5.834h11.667a5.833 5.833 0 015.833 5.833v25.26a5.833 5.833 0 01-5.833 5.834H14.166a5.833 5.833 0 01-5.833-5.833V7.37z" fill="#FF5A30"/></svg><svg viewBox="0 0 53 52" id="plan" xmlns="http://www.w3.org/2000/svg"><g clip-path="url(#bsclip0_2392_419)"><path d="M46.406 3.148a6.097 6.097 0 00-5.276 3.047H2.023C1.183 6.195.5 6.877.5 7.72v39.61c0 .84.682 1.523 1.523 1.523h44.383a6.1 6.1 0 006.094-6.094V9.242a6.1 6.1 0 00-6.094-6.094zm0 42.657H3.546V9.242h36.767v33.516a1.523 1.523 0 003.046 0 3.05 3.05 0 013.047-3.047 3.05 3.05 0 013.047 3.047 3.05 3.05 0 01-3.047 3.047zm3.047-8.323a6.057 6.057 0 00-3.047-.818c-1.109 0-2.15.298-3.047.818V9.242a3.05 3.05 0 013.047-3.047 3.05 3.05 0 013.047 3.047v28.24z"/><path d="M35.64 12.29H8.22c-.842 0-1.524.681-1.524 1.523v27.421c0 .842.682 1.524 1.524 1.524h15.234a1.523 1.523 0 001.524-1.524v-3.047a4.578 4.578 0 013.046-4.309v7.356c0 .842.683 1.524 1.524 1.524h6.094c.841 0 1.523-.682 1.523-1.524V13.812c0-.84-.682-1.523-1.523-1.523zm-1.523 27.42H31.07v-7.616c0-.842-.682-1.524-1.523-1.524-4.2 0-7.617 3.417-7.617 7.617v1.524H9.742v-9.14h6.094v4.57a1.524 1.524 0 003.047 0v-6.094c0-.841-.682-1.524-1.524-1.524H9.742V15.336h9.14v6.094h-4.57a1.523 1.523 0 000 3.047H26.5a1.523 1.523 0 000-3.047h-4.57v-6.094h12.187V39.71z"/></g><defs><clipPath id="bsclip0_2392_419"><path fill="#fff" transform="translate(.5)" d="M0 0h52v52H0z"/></clipPath></defs></svg><svg viewBox="0 0 48 48" id="plan-work" xmlns="http://www.w3.org/2000/svg"><path d="M42.375 2.906a5.628 5.628 0 00-4.87 2.813H1.406C.63 5.719 0 6.349 0 7.125v36.563c0 .776.63 1.406 1.406 1.406h40.969A5.631 5.631 0 0048 39.469V8.53a5.631 5.631 0 00-5.625-5.625zm0 39.375H2.812V8.531H36.75V39.47a1.406 1.406 0 002.813 0 2.816 2.816 0 012.812-2.813 2.816 2.816 0 012.813 2.813 2.816 2.816 0 01-2.813 2.812zm2.813-7.682a5.591 5.591 0 00-2.813-.755 5.591 5.591 0 00-2.813.755V8.53a2.816 2.816 0 012.813-2.812 2.816 2.816 0 012.813 2.812V34.6z"/><path d="M32.438 11.344H7.125c-.777 0-1.406.63-1.406 1.406v25.313c0 .776.63 1.406 1.406 1.406h14.063a1.406 1.406 0 001.406-1.407V35.25a4.226 4.226 0 012.812-3.978v6.79c0 .777.63 1.407 1.407 1.407h5.625c.776 0 1.406-.63 1.406-1.407V12.75c0-.777-.63-1.406-1.407-1.406zM31.03 36.656H28.22v-7.031c0-.777-.63-1.406-1.407-1.406a7.04 7.04 0 00-7.03 7.031v1.406H8.531V28.22h5.624v4.218a1.406 1.406 0 002.813 0v-5.624c0-.777-.63-1.407-1.407-1.407h-7.03v-11.25h8.437v5.625H12.75a1.406 1.406 0 000 2.813H24a1.406 1.406 0 000-2.813h-4.219v-5.625h11.25v22.5z"/></svg><svg fill="none" viewBox="0 0 19 22" id="play" xmlns="http://www.w3.org/2000/svg"><path d="M18.5 10.134a1 1 0 010 1.732L2 21.392a1 1 0 01-1.5-.866V1.474A1 1 0 012 .608l16.5 9.526z" fill="#fff"/></svg><svg viewBox="0 0 24 24" id="prev" xmlns="http://www.w3.org/2000/svg"><path fill-rule="evenodd" clip-rule="evenodd" d="M9.207 17.207a1 1 0 01-1.414 0l-4.5-4.5a1 1 0 010-1.414l4.5-4.5a1 1 0 011.414 1.414L6.414 11H20a1 1 0 110 2H6.414l2.793 2.793a1 1 0 010 1.414z"/></svg><svg fill="none" viewBox="0 0 24 24" id="recircle" xmlns="http://www.w3.org/2000/svg"><path fill-rule="evenodd" clip-rule="evenodd" d="M2.1 2a1 1 0 011 1v4.436A9.999 9.999 0 0112 2c4.355 0 8.058 2.784 9.43 6.667a1 1 0 11-1.885.666A8.004 8.004 0 005.07 8H8.1a1 1 0 110 2h-6a1 1 0 01-1-1V3a1 1 0 011-1zM3.177 14.057a1 1 0 011.276.61A8.004 8.004 0 0018.928 16h-3.03a1 1 0 110-2h6a1 1 0 011 1v6a1 1 0 11-2 0v-4.436a9.999 9.999 0 01-8.9 5.436c-4.356 0-8.059-2.784-9.43-6.667a1 1 0 01.609-1.276z" fill="#424551"/></svg><svg fill="none" viewBox="0 0 16 17" id="replay" xmlns="http://www.w3.org/2000/svg"><path d="M.667 7.828l6.096-6.662v3.975h1.295c4.019 0 7.276 3.247 7.276 7.252v2.106l-.576-.628a10.344 10.344 0 00-7.629-3.355h-.366v3.974L.667 7.828z" fill="#787A80"/></svg><svg fill="none" viewBox="0 0 100 68" id="signature" xmlns="http://www.w3.org/2000/svg"><path fill-rule="evenodd" clip-rule="evenodd" d="M72.1 65.9c-1.2-2.2 3.8-6.1 5.3-8-6.5.2-.3-3.8 3.3-1.8 0 1.3-7.6 9.7-8.6 9.8zm-3.2-2.3c2.3-.8 7.5-11.4 2.2-6.6.1 2-4.3 4.2-2.2 6.6zm29.9-30c0 9.8-21.5 17.7-29.1 17.8-3.1 3.1-7.8 14.9-12.9 15.9-2.3-3.6 6.7-15.5 10.1-18.6 0-1.5-4.6.7-2.9-3.8-2 .4-9.2 6.7-8.6 0-3.6 2.2-10 6.9-13.4 2.5-2.1.2-8.6 5.9-9.1.2-3 2.1-2.5 1.9-5.3 1.9-4.8 3.1-19.4 11.9-19.4-.3C11.4 37.5 3.3 54.5 1 48c0-4.9 16.4-27.1 19.3-25 0 1.3-8.5 9.5-10 11.2C9.8 35 .6 47.6 3 47.9c8.4-4.4 11.2-13.8 18.3-18.8 4.4.6-2.3 5.5-4 7.5-3.2 2.3-11.9 14.2-5.3 17.5 6.5 0 10.3-3.5 15.6-6.2 2.8-4.4 6.2-7.4 10.2-10.2 8.5-3.9 14.6-15.1 18.8-23.3 1.2-4 2.7-7.3.2-10.9C46.9-3.9 26.9 7.6 19.2 14c-.8-1 8.4-7.7 10.6-8 4.8-3.7 14.6-6 20.9-6C70.9 2.7 50 29.4 43 36.4c0 .6 1.7 2.1-.5 1.2-1.3.1-8.7 9.5-7.9 11 7.6 0 8-8.3 12.8-12.3.2-1.3 8.4-8.4 9.9-4.5-.5 5-10.4 11.6-14 14.4 0 5.1 12.1-3.1 13.2-3.7.4-.6 6.2-7.5 6.2-7.5-4.6-1.4-3.3-2.5 1.1-1.3 2.2-.4 3.4-4.7 6.1-3.2 0 3-6.8 5.7 4 3.8.8-.8 5.1-4.8 4.9-1.5-3.2 2.7 7.7.1 9.4-1.8 4.2 2.7-10.4 4.4-12.4 4.6-2 1.3-11 8.4-10.6 11.3 4.2 0 10.4-7.1 13.5-9.8.9-.1 1.2.7 2.1.5 3.4-2.6 15-9.4 18-4zM44 43.8c2.3-1.3 12.1-9 11.8-11.6-2.8-.3-12.7 9.4-11.8 11.6zm-10.1-.9c.3-.2.6-.3 1-.5 1.4-1.9-.7-.4-1 .5zm28.4-5.2c.7-.7 1.5-1.4 2.2-2-.3-.8-2 1.4-2.2 2zm7 .6c4.6-3.2 1.7-2.5-3.1-2.6-2.6 2.6-9.5 6.9-9.3 11 4.2-.7 9.8-5.2 12.4-8.4zm-1 12.7c-.8-4.7-9.7 11.4-10.3 13.9 4.2-4 7.2-9.2 10.3-13.9zm2.2-4c-.6.5-2.2 1.5-1.5 2.4.5-.5 1.5-1.7 1.5-2.4zm26.4-13.7c-7.4-2.3-24.3 9.6-26.3 16.9C78 49.8 85.7 45 92 41.4c1.4-1.3 7.4-6.1 4.9-8.1z" fill="#FF5A30"/></svg><svg fill="none" viewBox="0 0 48 48" id="slippers" xmlns="http://www.w3.org/2000/svg"><g clip-path="url(#bzclip0_2384_1291)" fill="#FF5A30"><path d="M38.054 2.09c-6.17-.648-11.716 3.843-12.365 10.012l-1.127 10.723a1.406 1.406 0 001.252 1.545l.466.05-1.176 11.188c-.54 5.14 3.203 9.763 8.344 10.303 5.14.54 9.763-3.203 10.303-8.344l1.176-11.188.467.05a1.406 1.406 0 001.545-1.252l1.127-10.723c.648-6.169-3.843-11.716-10.012-12.364zm-.294 2.797c4.627.486 7.995 4.646 7.509 9.273l-.392 3.73-16.783-1.764.392-3.73c.487-4.627 4.647-7.995 9.274-7.509zM27.506 21.72l.294-2.797 16.783 1.764-.294 2.797-16.783-1.764zm13.448 15.553a6.57 6.57 0 01-7.212 5.841 6.57 6.57 0 01-5.84-7.212l1.175-11.189 13.053 1.372-1.176 11.188z"/><path d="M32.171 40.122l3.73.392a1.406 1.406 0 00.293-2.797l-3.729-.392a1.406 1.406 0 00-.294 2.797zM9.947 2.09C3.777 2.738-.713 8.285-.065 14.454l1.127 10.722a1.406 1.406 0 001.545 1.252l.466-.05 1.176 11.19c.54 5.14 5.163 8.883 10.304 8.343 5.141-.54 8.884-5.163 8.344-10.304L21.72 24.42l.466-.05a1.406 1.406 0 001.251-1.545l-1.127-10.722c-.648-6.17-6.195-10.66-12.364-10.012zM3.712 23.484l-.294-2.797L20.2 18.923l.294 2.797-16.782 1.764zM20.099 35.9a6.57 6.57 0 01-5.84 7.213 6.57 6.57 0 01-7.213-5.84L5.87 26.083l13.054-1.371L20.099 35.9zm-.193-19.776L3.124 17.89l-.392-3.73c-.486-4.627 2.882-8.787 7.51-9.273 4.626-.487 8.786 2.882 9.272 7.51l.392 3.728z"/><path d="M12.1 40.513l3.73-.392a1.406 1.406 0 00-.295-2.797l-3.73.392a1.406 1.406 0 10.295 2.797z"/></g><defs><clipPath id="bzclip0_2384_1291"><path fill="#fff" d="M0 0h48v48H0z"/></clipPath></defs></svg><svg fill="none" viewBox="0 0 48 48" id="surface" xmlns="http://www.w3.org/2000/svg"><path d="M42.827 15.062h-6.125v-4.718H46.594a1.406 1.406 0 00.95-2.443l-2.729-2.73 2.772-2.77A1.406 1.406 0 0046.592 0H35.295c-.776 0-1.406.63-1.406 1.406v13.656h-1.606a5.178 5.178 0 00-5.172 5.172v2.93a5.14 5.14 0 00-2.359-.571h-1.506a5.177 5.177 0 00-5.172 5.172v2.93a5.143 5.143 0 00-2.36-.57H14.21a5.177 5.177 0 00-5.172 5.17v2.932a5.135 5.135 0 00-2.36-.572H5.173A5.177 5.177 0 000 42.827v3.765c0 .777.63 1.406 1.406 1.406h45.186c.777 0 1.406-.63 1.406-1.406V20.234a5.178 5.178 0 00-5.171-5.172zm-6.125-12.25h6.495l-1.365 1.365a1.405 1.405 0 000 1.99l1.365 1.364h-6.495V2.812zM2.812 42.826c0-1.3 1.059-2.359 2.36-2.359h1.506c1.3 0 2.359 1.059 2.359 2.36v2.359H2.812v-2.36zm9.038 0v-7.53a2.362 2.362 0 012.359-2.36h1.506c1.3 0 2.359 1.059 2.359 2.36v9.89h-6.225v-2.36zm9.036-7.53v-7.531c0-1.301 1.06-2.36 2.36-2.36h1.506c1.3 0 2.36 1.059 2.36 2.36v17.42h-6.226v-9.89zm24.3 9.89H29.924V20.234a2.362 2.362 0 012.359-2.36h10.544c1.3 0 2.359 1.059 2.359 2.36v24.952z" fill="#FF5A30"/></svg><svg viewBox="0 0 24 24" id="twitter" xmlns="http://www.w3.org/2000/svg"><path d="M22.5 5.772a8.902 8.902 0 01-2.474.65 4.18 4.18 0 001.894-2.28 8.922 8.922 0 01-2.737 1 4.387 4.387 0 00-3.145-1.302c-2.379 0-4.308 1.847-4.308 4.124 0 .323.038.638.112.94-3.58-.173-6.754-1.815-8.879-4.31a3.962 3.962 0 00-.583 2.073c0 1.431.762 2.694 1.916 3.433a4.455 4.455 0 01-1.95-.518v.052c0 1.997 1.485 3.665 3.454 4.044-.36.093-.741.145-1.135.145a4.31 4.31 0 01-.81-.077c.548 1.64 2.138 2.832 4.023 2.865a8.89 8.89 0 01-5.35 1.763c-.348 0-.69-.02-1.028-.057a12.572 12.572 0 006.603 1.856c7.925 0 12.257-6.285 12.257-11.736l-.015-.534a8.412 8.412 0 002.155-2.13z"/></svg><svg viewBox="0 0 32 32" id="twitter-32" xmlns="http://www.w3.org/2000/svg"><path d="M30 7.696a11.87 11.87 0 01-3.298.866 5.573 5.573 0 002.525-3.04 11.897 11.897 0 01-3.65 1.334 5.849 5.849 0 00-4.193-1.737c-3.172 0-5.744 2.463-5.744 5.499 0 .43.051.85.15 1.253-4.774-.23-9.006-2.42-11.84-5.747a5.282 5.282 0 00-.776 2.765c0 1.908 1.015 3.592 2.555 4.577a5.94 5.94 0 01-2.602-.69v.068c0 2.664 1.98 4.887 4.607 5.393a6.06 6.06 0 01-1.514.193c-.37 0-.73-.035-1.081-.102.731 2.186 2.852 3.776 5.364 3.82-1.964 1.474-4.442 2.35-7.133 2.35-.464 0-.92-.027-1.37-.076a16.763 16.763 0 008.804 2.475c10.567 0 16.342-8.38 16.342-15.648l-.019-.712A11.215 11.215 0 0030 7.696z"/></svg><svg fill="none" viewBox="0 0 20 20" id="twitter-white" xmlns="http://www.w3.org/2000/svg"><path d="M18.75 4.81a7.419 7.419 0 01-2.061.541 3.483 3.483 0 001.578-1.9 7.435 7.435 0 01-2.281.834 3.655 3.655 0 00-2.62-1.086c-1.983 0-3.59 1.54-3.59 3.437 0 .269.03.532.092.783C6.885 7.276 4.24 5.907 2.47 3.827a3.301 3.301 0 00-.485 1.728c0 1.193.634 2.245 1.596 2.86a3.712 3.712 0 01-1.626-.43v.042c0 1.665 1.238 3.055 2.88 3.37-.301.078-.618.121-.946.121-.232 0-.456-.022-.676-.064.457 1.367 1.782 2.36 3.353 2.388a7.408 7.408 0 01-4.459 1.469 7.98 7.98 0 01-.856-.047 10.477 10.477 0 005.503 1.546c6.604 0 10.213-5.237 10.213-9.78l-.012-.444A7.01 7.01 0 0018.75 4.81z" fill="#fff"/></svg><svg fill="none" viewBox="0 0 16 9" id="up" xmlns="http://www.w3.org/2000/svg"><path fill-rule="evenodd" clip-rule="evenodd" d="M.293 8.707a1 1 0 010-1.414l7-7a1 1 0 011.414 0l7 7a1 1 0 01-1.414 1.414L8 2.414 1.707 8.707a1 1 0 01-1.414 0z" fill="#fff"/></svg><svg viewBox="0 0 24 24" id="whatsapp" xmlns="http://www.w3.org/2000/svg"><path d="M22 11.742c0 5.381-4.395 9.743-9.818 9.743a9.835 9.835 0 01-4.746-1.212L2 22l1.772-5.227a9.64 9.64 0 01-1.409-5.03C2.363 6.361 6.76 2 12.182 2 17.605 2 22 6.362 22 11.742zm-9.818-8.19c-4.552 0-8.255 3.674-8.255 8.19 0 1.793.584 3.452 1.573 4.803l-1.032 3.042 3.172-1.009a8.25 8.25 0 004.542 1.355c4.551 0 8.255-3.674 8.255-8.19 0-4.517-3.703-8.191-8.255-8.191zm4.958 10.434c-.06-.1-.221-.16-.462-.278-.24-.12-1.424-.698-1.644-.777-.22-.08-.382-.12-.542.12-.16.238-.621.776-.762.935-.14.16-.28.18-.522.06-.24-.119-1.015-.371-1.935-1.185-.715-.633-1.198-1.414-1.339-1.653-.14-.24-.014-.368.106-.487.108-.107.24-.279.361-.418.12-.14.16-.24.24-.399.081-.16.041-.298-.02-.418-.06-.12-.541-1.295-.742-1.773-.2-.478-.4-.398-.541-.398-.14 0-.3-.02-.461-.02-.16 0-.422.06-.642.299-.22.239-.842.816-.842 1.991 0 1.175.862 2.31.982 2.47.12.159 1.665 2.649 4.111 3.605 2.447.956 2.447.637 2.889.597.44-.04 1.423-.578 1.625-1.135.2-.558.2-1.036.14-1.136z"/></svg><svg viewBox="0 0 32 32" id="whatsapp-32" xmlns="http://www.w3.org/2000/svg"><path d="M29.333 15.656c0 7.174-5.86 12.99-13.091 12.99-2.296 0-4.452-.587-6.328-1.616l-7.248 2.303 2.363-6.97a12.853 12.853 0 01-1.879-6.707c0-7.174 5.861-12.99 13.092-12.99 7.23 0 13.09 5.816 13.09 12.99zM16.242 4.735c-6.07 0-11.007 4.899-11.007 10.92 0 2.39.78 4.604 2.097 6.404l-1.375 4.056 4.23-1.344a11 11 0 006.055 1.806c6.069 0 11.006-4.899 11.006-10.92 0-6.022-4.937-10.922-11.006-10.922zm6.61 13.913c-.08-.133-.294-.213-.615-.372-.32-.159-1.899-.93-2.192-1.035-.295-.107-.51-.16-.723.159-.213.319-.828 1.035-1.016 1.248-.187.213-.374.24-.695.08-.321-.16-1.355-.496-2.58-1.58-.954-.844-1.599-1.886-1.786-2.205-.187-.319-.02-.49.141-.65.145-.142.321-.371.482-.557.16-.186.214-.318.32-.531.108-.213.054-.398-.027-.558-.08-.16-.722-1.726-.99-2.364-.266-.637-.533-.53-.721-.53-.187 0-.401-.027-.615-.027-.214 0-.562.08-.856.398-.294.319-1.123 1.09-1.123 2.656 0 1.567 1.15 3.08 1.31 3.293.16.212 2.22 3.531 5.482 4.806s3.262.85 3.85.796c.589-.053 1.899-.77 2.167-1.513.267-.744.267-1.382.187-1.514z"/></svg><svg viewBox="0 0 24 24" id="youtube" xmlns="http://www.w3.org/2000/svg"><path fill-rule="evenodd" clip-rule="evenodd" d="M21.39 4.114a3.007 3.007 0 012.116 2.115c.514 1.878.494 5.792.494 5.792s0 3.895-.494 5.773a3.007 3.007 0 01-2.116 2.115c-1.878.495-9.39.495-9.39.495s-7.493 0-9.39-.514a3.007 3.007 0 01-2.116-2.116C0 15.916 0 12.001 0 12.001S0 8.107.494 6.23A3.068 3.068 0 012.61 4.094C4.488 3.6 12 3.6 12 3.6s7.513 0 9.391.514zm-5.535 7.888L9.608 15.6V8.404l6.247 3.598z"/></svg><svg viewBox="0 0 32 32" id="youtube-32" xmlns="http://www.w3.org/2000/svg"><path fill-rule="evenodd" clip-rule="evenodd" d="M28.52 5.486a4.01 4.01 0 012.82 2.82c.686 2.505.66 7.724.66 7.724s0 5.192-.66 7.697a4.01 4.01 0 01-2.82 2.82c-2.504.659-12.52.659-12.52.659s-9.99 0-12.52-.685A4.01 4.01 0 01.658 23.7C0 21.221 0 16.002 0 16.002s0-5.193.659-7.696c.369-1.371 1.476-2.478 2.82-2.847C5.983 4.8 16 4.8 16 4.8s10.017 0 12.521.686zm-7.38 10.517l-8.33 4.798v-9.595l8.33 4.797z"/></svg></svg>