<svg width="53" height="52" xmlns="http://www.w3.org/2000/svg"><g clip-path="url(#clip0_2393_2349)"><path d="M50.977 27.523c.84 0 1.523-.682 1.523-1.523V14.625c0-.841-.682-1.523-1.523-1.523H28.023V3.25c0-.841-.682-1.523-1.523-1.523H10.25c-.841 0-1.523.682-1.523 1.523v9.852H2.023c-.84 0-1.523.682-1.523 1.523V26c0 .841.682 1.523 1.523 1.523h6.704v8.329H2.023c-.84 0-1.523.682-1.523 1.523V48.75c0 .841.682 1.523 1.523 1.523h48.954c.84 0 1.523-.682 1.523-1.523V37.375c0-.841-.682-1.523-1.523-1.523h-6.704v-8.329h6.704zm-1.524-3.046H36.148v-8.329h13.305v8.329zm-16.351 0H19.898v-8.329h13.204v8.329zM11.773 4.773h13.204v8.329H11.773V4.773zM3.547 24.477v-8.329h13.305v8.329H3.547zm8.226 3.046h13.204v8.329H11.773v-8.329zM3.547 38.898h13.305v8.329H3.547v-8.329zm16.351 0h13.204v8.329H19.898v-8.329zm29.555 0v8.329H36.148v-8.329h13.305zm-8.226-3.046H28.023v-8.329h13.204v8.329z"/></g><defs><clipPath id="clip0_2393_2349"><path fill="#fff" transform="translate(.5)" d="M0 0h52v52H0z"/></clipPath></defs></svg>