<svg width="48" height="48" xmlns="http://www.w3.org/2000/svg"><g clip-path="url(#clip0_2432_1337)"><path d="M28.922 21.094c-1.957 0-3.657.891-4.922 2.58-1.266-1.689-2.965-2.58-4.922-2.58-3.655 0-6.328 3.004-6.328 6.69 0 4.766 4.619 7.76 10.335 12.659a1.402 1.402 0 001.83 0c5.723-4.905 10.335-7.895 10.335-12.659 0-3.683-2.67-6.69-6.328-6.69zM24 37.529c-5.15-4.351-8.438-6.697-8.438-9.745 0-2.21 1.512-3.878 3.516-3.878 2.606 0 3.529 3.06 3.57 3.198a1.407 1.407 0 002.706-.006c.009-.032.924-3.192 3.568-3.192 2.004 0 3.515 1.667 3.515 3.878 0 3.05-3.291 5.398-8.437 9.745z"/><path d="M46.593 45.188h-4.218V23.345l.024.017a1.406 1.406 0 001.944-.299l3.376-4.499a1.41 1.41 0 00-.302-1.984L24.83.272a1.406 1.406 0 00-1.656-.003l-9.111 6.579V4.22c0-.777-.63-1.407-1.407-1.407H7.031c-.776 0-1.406.63-1.406 1.407v8.72L.583 16.58a1.406 1.406 0 00-.301 1.984l3.375 4.499a1.406 1.406 0 001.944.299l.024-.017v21.843H1.406a1.406 1.406 0 100 2.813h45.187a1.406 1.406 0 000-2.813zM8.437 5.626h2.813v3.253l-2.813 2.03V5.626zM5.082 20.274l-1.69-2.252L24 3.142l20.61 14.88-1.69 2.252L24.822 7.298a1.406 1.406 0 00-1.645 0c-.319.23-17.694 12.688-18.096 12.976zm3.356 1.054C18.767 13.92 22.587 11.183 24 10.168c1.91 1.37 7.12 5.107 15.563 11.16v23.86H8.436v-23.86z"/></g><defs><clipPath id="clip0_2432_1337"><path d="M0 0h48v48H0z"/></clipPath></defs></svg>