<svg width="48" height="48" xmlns="http://www.w3.org/2000/svg"><path d="M42.375 2.906a5.628 5.628 0 00-4.87 2.813H1.406C.63 5.719 0 6.349 0 7.125v36.563c0 .776.63 1.406 1.406 1.406h40.969A5.631 5.631 0 0048 39.469V8.53a5.631 5.631 0 00-5.625-5.625zm0 39.375H2.812V8.531H36.75V39.47a1.406 1.406 0 002.813 0 2.816 2.816 0 012.812-2.813 2.816 2.816 0 012.813 2.813 2.816 2.816 0 01-2.813 2.812zm2.813-7.682a5.591 5.591 0 00-2.813-.755 5.591 5.591 0 00-2.813.755V8.53a2.816 2.816 0 012.813-2.812 2.816 2.816 0 012.813 2.812V34.6z"/><path d="M32.438 11.344H7.125c-.777 0-1.406.63-1.406 1.406v25.313c0 .776.63 1.406 1.406 1.406h14.063a1.406 1.406 0 001.406-1.407V35.25a4.226 4.226 0 012.812-3.978v6.79c0 .777.63 1.407 1.407 1.407h5.625c.776 0 1.406-.63 1.406-1.407V12.75c0-.777-.63-1.406-1.407-1.406zM31.03 36.656h-2.81v-7.031c0-.777-.63-1.406-1.407-1.406a7.04 7.04 0 00-7.03 7.031v1.406H8.531V28.22h5.624v4.218a1.406 1.406 0 002.813 0v-5.624c0-.777-.63-1.407-1.407-1.407h-7.03v-11.25h8.437v5.625H12.75a1.406 1.406 0 000 2.813H24a1.406 1.406 0 000-2.813h-4.219v-5.625h11.25v22.5z"/></svg>