<svg width="32" height="32" xmlns="http://www.w3.org/2000/svg"><path d="M29.333 15.656c0 7.174-5.86 12.99-13.091 12.99-2.296 0-4.452-.587-6.328-1.616l-7.248 2.303 2.363-6.97a12.853 12.853 0 01-1.879-6.707c0-7.174 5.861-12.99 13.092-12.99 7.23 0 13.09 5.816 13.09 12.99zM16.242 4.735c-6.07 0-11.007 4.899-11.007 10.92 0 2.39.78 4.604 2.097 6.404l-1.375 4.056 4.23-1.344a11 11 0 006.055 1.806c6.069 0 11.006-4.899 11.006-10.92 0-6.022-4.937-10.922-11.006-10.922zm6.61 13.913c-.08-.133-.294-.213-.615-.372-.32-.159-1.899-.93-2.192-1.035-.295-.107-.51-.16-.723.159-.213.319-.828 1.035-1.016 1.248-.187.213-.374.24-.695.08-.321-.16-1.355-.496-2.58-1.58-.954-.844-1.599-1.886-1.786-2.205-.187-.319-.02-.49.141-.65.145-.142.321-.371.482-.557.16-.186.214-.318.32-.531.108-.213.054-.398-.027-.558-.08-.16-.722-1.726-.99-2.364-.266-.637-.533-.53-.721-.53-.187 0-.401-.027-.615-.027-.214 0-.562.08-.856.398-.294.319-1.123 1.09-1.123 2.656 0 1.567 1.15 3.08 1.31 3.293.16.212 2.22 3.531 5.482 4.806s3.262.85 3.85.796c.589-.053 1.899-.77 2.167-1.513.267-.744.267-1.382.187-1.514z"/></svg>